<svg width="362" height="228" viewBox="0 0 362 228" fill="none" xmlns="http://www.w3.org/2000/svg">
<rect width="362" height="228" fill="white"/>
<line x1="38.5" y1="78" x2="38.5" y2="150" stroke="#D9D9D9"/>
<path fill-rule="evenodd" clip-rule="evenodd" d="M262.908 68.2322C262.969 68.4575 262.999 68.6898 263 68.9232V105.199C263 105.664 262.878 106.122 262.646 106.524C262.415 106.927 262.081 107.261 261.68 107.493L231.45 125.022V159.767C231.45 160.713 230.951 161.585 230.137 162.062L167.033 198.648C166.889 198.73 166.731 198.783 166.573 198.84C166.514 198.859 166.459 198.896 166.396 198.912C165.955 199.029 165.491 199.029 165.05 198.912C164.978 198.892 164.912 198.853 164.844 198.826C164.699 198.773 164.548 198.727 164.41 198.648L101.32 162.062C100.919 161.83 100.586 161.495 100.354 161.093C100.122 160.69 100 160.233 100 159.767V50.9409C100 50.7029 100.033 50.4714 100.092 50.2466C100.112 50.1706 100.158 50.1011 100.184 50.0251C100.233 49.8862 100.279 49.7441 100.351 49.6151C100.4 49.5292 100.473 49.4597 100.532 49.3804C100.607 49.2746 100.676 49.1655 100.765 49.0729C100.84 48.9969 100.939 48.9407 101.024 48.8745C101.119 48.7952 101.205 48.7092 101.313 48.6464H101.316L132.863 30.3533C133.263 30.1218 133.716 30 134.176 30C134.637 30 135.09 30.1218 135.489 30.3533L167.036 48.6464H167.043C167.148 48.7125 167.237 48.7952 167.332 48.8712C167.417 48.9374 167.512 48.9969 167.588 49.0696C167.68 49.1655 167.745 49.2746 167.824 49.3804C167.88 49.4597 167.956 49.5292 168.001 49.6151C168.077 49.7474 168.12 49.8862 168.172 50.0251C168.198 50.1011 168.244 50.1706 168.264 50.2499C168.325 50.4752 168.355 50.7075 168.356 50.9409V118.913L194.644 103.668V68.9199C194.644 68.6885 194.677 68.4537 194.736 68.2322C194.759 68.1529 194.802 68.0834 194.828 68.0074C194.88 67.8685 194.926 67.7264 194.999 67.5974C195.048 67.5115 195.12 67.4421 195.176 67.3627C195.255 67.2569 195.32 67.1478 195.412 67.0552C195.488 66.9792 195.583 66.923 195.668 66.8569C195.767 66.7775 195.852 66.6915 195.957 66.6287H195.96L227.511 48.3356C227.91 48.1038 228.363 47.9818 228.824 47.9818C229.285 47.9818 229.737 48.1038 230.137 48.3356L261.684 66.6287C261.795 66.6949 261.881 66.7775 261.979 66.8536C262.061 66.9197 262.156 66.9792 262.232 67.0519C262.324 67.1478 262.389 67.2569 262.468 67.3627C262.527 67.4421 262.6 67.5115 262.645 67.5974C262.721 67.7264 262.764 67.8685 262.816 68.0074C262.846 68.0834 262.888 68.1529 262.908 68.2322V68.2322ZM257.741 103.668V73.5023L246.701 79.903L231.45 88.7471V118.913L257.744 103.668H257.741ZM226.194 158.236V128.051L211.192 136.68L168.353 161.304V191.774L226.194 158.236ZM105.259 55.52V158.236L163.094 191.771V161.308L132.88 144.086L132.87 144.079L132.857 144.073C132.755 144.013 132.67 143.927 132.574 143.854C132.492 143.788 132.397 143.735 132.325 143.663L132.318 143.653C132.233 143.57 132.174 143.468 132.102 143.375C132.036 143.286 131.957 143.21 131.905 143.117L131.901 143.107C131.842 143.008 131.806 142.889 131.764 142.777C131.721 142.677 131.665 142.585 131.639 142.479V142.476C131.606 142.35 131.599 142.218 131.586 142.089C131.573 141.99 131.547 141.891 131.547 141.791V70.7648L116.299 61.9174L105.259 55.5233V55.52ZM134.18 35.7027L107.895 50.9409L134.173 66.1791L160.455 50.9376L134.173 35.7027H134.18ZM147.849 130.802L163.097 121.961V55.52L152.057 61.9207L136.806 70.7648V137.206L147.849 130.802ZM228.824 53.685L202.542 68.9232L228.824 84.1614L255.102 68.9199L228.824 53.685ZM226.194 88.7471L210.943 79.903L199.903 73.5023V103.668L215.151 112.509L226.194 118.913V88.7471ZM165.72 156.725L204.269 134.561L223.538 123.485L197.277 108.257L167.04 125.789L139.481 141.768L165.72 156.725Z" fill="#FF2D20"/>
</svg>
